HIERARCHY
ROOT Hips
{
	OFFSET 0.00000 0.00000 0.00000
	CHANNELS 6 Xposition Yposition Zposition Zrotation Yrotation Xrotation 
	JOINT LHipJoint
	{
		OFFSET 0 0 0
		CHANNELS 3 Zrotation Yrotation Xrotation
		JOINT LeftHip
		{
			OFFSET 1.27966 -1.91611 0.81506
			CHANNELS 3 Zrotation Yrotation Xrotation
			JOINT LeftKnee
			{
				OFFSET 2.49511 -6.85528 0.00000
				CHANNELS 3 Zrotation Yrotation Xrotation
				JOINT LeftAnkle
				{
					OFFSET 2.67286 -7.34045 0.00000
					CHANNELS 3 Zrotation Yrotation Xrotation
					JOINT LeftToe
					{
						OFFSET 0.22740 -0.62477 2.32102
						CHANNELS 3 Zrotation Yrotation Xrotation
						End Site
						{
							OFFSET 0.00000 -0.00000 1.20480
						}
					}
				}
			}
		}
	}
	JOINT RHipJoint
	{
		OFFSET 0 0 0
		CHANNELS 3 Zrotation Yrotation Xrotation
		JOINT RightHip
		{
			OFFSET -1.09666 -1.91611 0.81505
			CHANNELS 3 Zrotation Yrotation Xrotation
			JOINT RightKnee
			{
				OFFSET -2.51373 -6.90642 0.00000
				CHANNELS 3 Zrotation Yrotation Xrotation
				JOINT RightAnkle
				{
					OFFSET -2.70173 -7.42295 0.00000
					CHANNELS 3 Zrotation Yrotation Xrotation
					JOINT RightToe
					{
						OFFSET -0.22214 -0.61032 2.18267
						CHANNELS 3 Zrotation Yrotation Xrotation
						End Site
						{
							OFFSET -0.00000 -0.00000 1.13683
						}
					}
				}
			}
		}
	}
	JOINT lowerback
	{
		OFFSET 0 0 0
		CHANNELS 3 Zrotation Yrotation Xrotation
		JOINT Chest
		{
			OFFSET -0.00990 2.16804 -0.08389
			CHANNELS 3 Zrotation Yrotation Xrotation
			JOINT Chest2
			{
				OFFSET 0.06407 2.15456 0.07285
				CHANNELS 3 Zrotation Yrotation Xrotation
				JOINT lowerneck
				{
					OFFSET 0 0 0
					CHANNELS 3 Zrotation Yrotation Xrotation
					JOINT Neck
					{
						OFFSET -0.16931 1.61602 0.24462
						CHANNELS 3 Zrotation Yrotation Xrotation
						JOINT Head
						{
							OFFSET 0.21556 1.63376 -0.33896
							CHANNELS 3 Zrotation Yrotation Xrotation
							End Site
							{
								OFFSET 0.08444 1.69244 -0.14900
							}
						}
					}
				}
				JOINT LeftCollar
				{
					OFFSET 0 0 0
					CHANNELS 3 Zrotation Yrotation Xrotation
					JOINT LeftShoulder
					{
						OFFSET 2.89000 1.40150 -0.54392
CHANNELS 3 Zrotation Xrotation Yrotation
						JOINT LeftElbow
						{
OFFSET 0 -5.107550 0.000000
CHANNELS 3 Zrotation Xrotation Yrotation
							JOINT LeftWrist
							{
OFFSET 0 -3.362530 0.000000
CHANNELS 3 Zrotation Xrotation Yrotation
								JOINT lhand
								{
									OFFSET 0 0 0
CHANNELS 3 Zrotation Xrotation Yrotation
									JOINT LFingers
									{
OFFSET 0 -0.619090 0.000000
CHANNELS 3 Zrotation Xrotation Yrotation
										End Site
										{
OFFSET 0 -0.499120 0.000000
										}
									}
								}
								JOINT LThumb
								{
OFFSET 0 0.000000 0.000000
CHANNELS 3 Zrotation Xrotation Yrotation
									End Site
									{
OFFSET 0 -0.506750 0.506750
									}
								}
							}
						}
					}
				}
				JOINT RightCollar
				{
					OFFSET 0 0 0
					CHANNELS 3 Zrotation Yrotation Xrotation
					JOINT RightShoulder
					{
						OFFSET -2.65771 1.70968 -0.54312
CHANNELS 3 Zrotation Xrotation Yrotation
						JOINT RightElbow
						{
OFFSET 0 -5.273870 0.000000
CHANNELS 3 Zrotation Xrotation Yrotation
							JOINT RightWrist
							{
OFFSET 0 -3.401440 0.000000
CHANNELS 3 Zrotation Xrotation Yrotation
								JOINT rhand
								{
									OFFSET 0 0 0
CHANNELS 3 Zrotation Xrotation Yrotation
									JOINT RFingers
									{
OFFSET 0 -0.742820 0.000000
CHANNELS 3 Zrotation Xrotation Yrotation
										End Site
										{
OFFSET 0 -0.598880 0.000000
										}
									}
								}
								JOINT RThumb
								{
OFFSET 0 0.000000 0.000000
CHANNELS 3 Zrotation Xrotation Yrotation
									End Site
									{
OFFSET 0 -0.608030 0.608030
									}
								}
							}
						}
					}
				}
			}
		}
	}
}
MOTION
Frames: 7
Frame Time: 0.008333333333333333
0.664000 18.131000 -12.598100 -3.603100 2.499700 -0.020800 0.000000 0.000000 0.000000 -13.060700 0.244900 -7.397300 2.093800 9.058800 25.979500 0.645400 -5.579500 -14.312500 0.941700 -6.180800 -17.310000 0.000000 0.000000 0.000000 22.160700 2.905500 -5.657200 -1.865400 -8.579900 24.489800 -0.657800 -5.169300 -18.067400 -0.609300 4.996300 -13.898000 -0.642600 -0.203500 7.489100 3.224300 -0.165900 -0.899600 3.745800 -0.015100 -5.132900 -17.698900 -7.894200 -16.289000 12.724900 -9.682200 23.400100 6.218500 -4.532500 11.912800 -0.000000 0.000000 0.000000 0.000900 4.801200 -11.455300 16.864100 -26.678300 4.026100 18.180300 10.915900 -26.596300 0.000000 0.000000 0.000000 -7.125000 0.000000 0.000000 -13.140400 57.282600 4.000000 -0.000000 0.000000 0.000000 -6.580100 1.110300 6.495400 -14.279500 -23.132900 -2.937000 -17.956900 -0.400900 -10.773500 0.000000 0.000000 0.000000 7.125000 0.000000 -0.000000 6.430000 18.708300 4.053400
0.740728 18.171372 -12.788956 -2.977656 2.577639 1.155938 0.000000 0.000000 0.000000 -13.984442 -1.962387 -9.652831 2.179778 9.230956 26.520447 0.614435 -5.524690 -13.964220 1.136203 -6.769579 -19.034557 0.000000 0.000000 0.000000 20.526372 2.242457 -6.984695 -1.683442 -8.173034 23.240880 -0.884649 -2.086735 -18.637903 -0.750319 5.532713 -15.434441 -0.834971 0.135686 8.084355 2.956650 0.254876 -0.655517 3.525733 0.193525 -5.242616 -18.711505 -8.419089 -14.230138 13.722166 -10.662426 21.803231 6.586720 -5.013270 11.212760 0.000000 0.000000 0.000000 0.214192 4.779235 -12.994240 17.546400 -27.572367 4.337258 14.919922 9.842219 -29.746912 0.000000 0.000000 0.000000 -7.125000 0.000000 0.000000 -18.574236 59.608512 6.767795 0.000000 0.000000 0.000000 -4.735651 1.240143 9.657474 -15.443657 -24.760491 -3.409628 -19.956087 -0.172571 -10.314530 0.000000 0.000000 0.000000 7.125000 0.000000 0.000000 5.011841 19.044731 3.114064
0.635745 18.164900 -13.190441 -3.673831 2.514128 0.960114 0.000000 0.000000 0.000000 -12.879164 -2.436851 -10.501159 2.107943 9.087385 26.068970 0.631228 -4.753286 -14.150468 1.169847 -6.865511 -19.317561 0.000000 0.000000 0.000000 21.599182 1.947584 -9.107732 -1.878755 -8.608810 24.579043 -1.017470 -0.937742 -19.421882 -1.023784 6.431457 -18.043374 -0.458555 0.223263 8.902466 3.488571 0.430148 0.019144 3.848677 0.268174 -5.011825 -19.765777 -8.466627 -12.480689 15.153675 -10.938488 19.532197 7.229436 -5.131768 10.261652 0.000000 0.000000 0.000000 0.428826 4.404826 -11.783460 16.434891 -26.106779 3.835374 14.531531 10.290758 -30.023743 0.000000 0.000000 0.000000 -7.125000 0.000000 0.000000 -19.187863 59.780035 7.080101 0.000000 0.000000 0.000000 -4.632922 1.237271 8.592976 -14.732093 -23.771585 -3.117149 -21.027566 0.416428 -11.444144 0.000000 0.000000 0.000000 7.125000 0.000000 0.000000 4.280889 17.763699 2.778545
0.418833 18.120186 -13.360590 -4.026168 2.254615 -0.062078 0.000000 0.000000 0.000000 -11.621873 -4.324883 -8.868044 2.128483 9.128680 26.198778 0.931342 -6.622590 -17.218545 0.247281 -3.199077 -8.833449 0.000000 0.000000 0.000000 22.781359 2.271959 -9.059404 -2.015201 -8.897608 25.475546 -0.924337 -0.240728 -18.263337 -0.910659 6.080684 -17.018839 0.563805 -0.110637 8.856703 3.632507 0.107327 -0.282936 3.465959 0.088776 -5.278437 -18.717005 -8.632626 -12.222933 14.229894 -11.105935 18.231117 6.633463 -5.216430 9.658944 0.000000 0.000000 0.000000 -0.882320 4.826328 -12.253285 16.199440 -25.790287 3.732331 15.185392 10.451142 -27.651587 0.000000 0.000000 0.000000 -7.125000 0.000000 0.000000 -16.887799 57.669611 5.339592 0.000000 0.000000 0.000000 -5.829393 2.244868 7.143064 -14.319630 -23.189760 -2.952788 -18.981411 0.915799 -12.312720 0.000000 0.000000 0.000000 7.125000 0.000000 0.000000 5.731757 17.022379 3.820087
0.677868 18.096471 -13.098913 -3.973671 -3.005067 -1.928855 0.000000 0.000000 0.000000 -12.858535 -0.539698 -5.778715 2.041643 8.952244 25.646174 0.677115 -4.214336 -14.689246 0.661848 -5.203004 -14.488495 0.000000 0.000000 0.000000 21.769273 2.171258 -5.922688 -1.934070 -8.727312 24.946035 -0.905185 3.544208 -17.136261 -1.015551 6.411124 -17.982162 0.990127 -0.002138 8.135732 3.745443 0.274451 -0.252584 3.313918 0.157798 -4.848030 -18.170091 -8.264823 -14.483838 13.795482 -10.232610 18.508431 6.476334 -4.727825 9.956576 0.000000 0.000000 0.000000 -0.787033 5.518789 -12.462803 15.962282 -25.469429 3.629676 15.460076 11.079681 -30.411161 0.000000 0.000000 0.000000 -7.125000 0.000000 0.000000 -18.488721 60.363157 7.069619 0.000000 0.000000 0.000000 -5.707325 1.941179 8.000781 -14.754204 -23.802531 -3.126070 -20.274911 -0.385298 -10.231733 0.000000 0.000000 0.000000 7.125000 0.000000 0.000000 4.784249 19.108692 2.964879
0.942896 18.071479 -12.948093 -3.451635 -4.262565 -2.237296 0.000000 0.000000 0.000000 -14.498408 0.499655 -5.023407 2.045180 8.959546 25.669009 0.759896 -3.541318 -15.652485 0.677028 -5.261291 -14.655332 0.000000 0.000000 0.000000 20.215374 2.091528 -5.341230 -1.978030 -8.820217 25.234466 -0.934547 4.500634 -17.314463 -1.151667 6.813633 -19.164561 0.374860 -0.003114 7.795169 3.767845 0.214452 -0.503504 3.693393 0.146046 -4.917575 -17.762085 -8.216915 -16.766643 12.615885 -9.771799 20.685339 6.058096 -4.540802 10.997086 0.000000 0.000000 0.000000 -0.440777 5.574353 -13.923533 17.878163 -28.000736 4.491898 15.821635 9.925005 -30.021303 0.000000 0.000000 0.000000 -7.125000 0.000000 0.000000 -17.813381 60.079216 6.679459 0.000000 0.000000 0.000000 -4.944645 3.131697 6.035415 -13.689742 -22.289390 -2.709326 -21.396731 1.135501 -10.185067 0.000000 0.000000 0.000000 7.125000 0.000000 0.000000 3.987067 19.072787 2.471308
0.977885 18.068313 -12.772945 -4.131504 -2.824520 -1.920029 0.000000 0.000000 0.000000 -13.789533 -0.066691 -4.789533 2.069727 9.009739 25.825917 0.792068 -4.510095 -15.899863 0.700509 -5.349754 -14.908971 0.000000 0.000000 0.000000 20.973146 1.261876 -4.476305 -1.829335 -8.501215 24.247059 -1.006099 3.733495 -18.074918 -1.128484 6.747063 -18.968084 0.281971 -0.653239 7.522923 3.387445 -0.658454 -1.426565 3.463124 -0.275227 -5.679239 -17.269060 -7.670239 -16.361780 12.648806 -9.336543 21.955792 6.117697 -4.333803 11.283569 0.000000 0.000000 0.000000 -0.330818 7.653737 -10.116131 15.779604 -25.220854 3.551479 16.231917 11.070496 -30.100082 0.000000 0.000000 0.000000 -7.125000 0.000000 0.000000 -17.430610 60.250490 6.603031 0.000000 0.000000 0.000000 -4.120907 4.467824 4.360674 -13.721075 -22.334454 -2.721164 -21.055844 1.249530 -10.649102 0.000000 0.000000 0.000000 7.125000 0.000000 0.000000 4.239788 18.605822 2.672818
